<svg width="69" height="56" fill="none" xmlns="http://www.w3.org/2000/svg"><g clip-path="url(#a)" fill="#303030"><path d="m39.15 16.87-1.31-1a1 1 0 0 0-1.4.14L18.31 36.83l.28.31L23.08 33a.69.69 0 0 1 .27-1.33.68.68 0 0 1 .65.48l5.92-5.49a.51.51 0 0 1 .64 0l.3.22a.5.5 0 0 0 .67-.08l7.74-8.68a.83.83 0 0 0-.12-1.25Z"/><path d="M47.67 22.73a40.45 40.45 0 0 1-13.12 6.15A71.16 71.16 0 0 1 20.28 31c.1.71.27 1.4.52 2.08 2.72 2.46 23.2-1.74 27.2-6.6.85-1.01-.33-3.75-.33-3.75ZM23.35 33a.68.68 0 1 1 .63-.42.67.67 0 0 1-.63.42ZM4 21.29l.16-.69 2.6.59c.21.4.35.83.39 1.28a4.27 4.27 0 0 1-.95 3.16c-.41.47-.95.81-1.54 1a3.65 3.65 0 0 1-3.56-.81 3.3 3.3 0 0 1-.95-1.57 3.78 3.78 0 0 1 0-2c.1-.49.3-.96.57-1.38.26-.38.6-.7 1-.93l.36.55a2.86 2.86 0 0 0-1.32 1.94c-.12.52-.11 1.06.03 1.57.13.49.4.93.77 1.27.38.37.85.62 1.37.73.5.14 1.03.14 1.53 0a2.94 2.94 0 0 0 1.95-2.22c.16-.63.12-1.3-.12-1.91L4 21.29ZM9.66 15l-2.33 3.11 1 1.79-.46.62-3.7-6.75.43-.59 7.53 1.62-.47.62-2-.42ZM9 14.84l-4-.9 2 3.59 2-2.69ZM9 8.55l.6-.45 3.81 5.1 3.14-2.35.38.51-3.73 2.79L9 8.55ZM15.3 4.38l.67-.3 2.64 5.78 3.57-1.62.26.58-4.24 1.93-2.9-6.37ZM28.48 6.68l.15.63-4.82 1.13-1.6-6.82L26.89.53l.14.62-4 .93.57 2.42 3.52-.83.15.62-3.53.82.6 2.53 4.14-.96ZM35.35 6.93l-1.67-2.2c-.19.01-.37.01-.56 0l-1.88.06.07 2.22h-.74l-.23-7L33 0c.75-.07 1.5.13 2.12.57a2.2 2.2 0 0 1 .82 1.74c.03.5-.1.98-.37 1.4-.29.4-.7.7-1.16.85l1.75 2.34-.81.03Zm-.7-3.29a1.59 1.59 0 0 0 .51-1.31 1.61 1.61 0 0 0-.59-1.28A2.43 2.43 0 0 0 33 .64l-1.9.07.12 3.5 1.86-.06a2.4 2.4 0 0 0 1.57-.51ZM40.64 5.07l-.36 2.39-.73-.11.37-2.35-2.07-5 .78.12 1.77 4.26 3-3.53.7.15-3.46 4.07ZM50.53 4.65l.87 1.13-.38.3-.87-1.16-.55 1.31-.42-.18.56-1.31-1.44.19v-.48l1.42-.16-.88-1.13.39-.3L50 4l.54-1.32.43.18-.51 1.34L51.9 4v.49l-1.37.16ZM53.87 12.71a2.77 2.77 0 0 1-.43-1.21l.59-.26c.04.4.17.78.38 1.12.22.38.51.72.86 1 .36.34.81.56 1.3.63a1.09 1.09 0 0 0 1.13-.7.9.9 0 0 0 .04-.37 1.84 1.84 0 0 0-.24-.69c-.19-.3-.4-.6-.61-.89-.27-.35-.5-.72-.72-1.1a2 2 0 0 1-.26-.94c0-.37.14-.73.39-1 .22-.26.5-.46.83-.57a2 2 0 0 1 1.11 0 4.5 4.5 0 0 1 2.08 1.6c.21.3.37.64.47 1l-.57.3c-.1-.33-.25-.65-.44-.94-.2-.26-.42-.5-.67-.69-.35-.34-.8-.55-1.29-.61a1.08 1.08 0 0 0-.94.41.86.86 0 0 0-.23.68c.02.25.1.5.24.71.14.23.34.53.61.89.27.34.5.7.72 1.08a2 2 0 0 1 .27.94c0 .37-.14.73-.39 1-.22.27-.51.47-.84.57-.36.1-.75.1-1.11 0a3.7 3.7 0 0 1-1.28-.72c-.4-.35-.74-.77-1-1.24ZM63.93 14.17l-1.41-2 .52-.37 3.25 4.64-.52.37-1.41-2-5.22 3.65-.42-.61 5.21-3.68ZM61.69 22.39A3.55 3.55 0 0 1 64.33 20a3.62 3.62 0 0 1 1.88.07 3.56 3.56 0 0 1 2.38 2.74c.17.63.17 1.3 0 1.93-.18.6-.53 1.14-1 1.56a3.71 3.71 0 0 1-3.57.78 3.35 3.35 0 0 1-1.53-1 3.76 3.76 0 0 1-.85-1.73 3.85 3.85 0 0 1 .05-1.96ZM63 25.57c.33.38.77.66 1.25.81a3.1 3.1 0 0 0 2.9-.64 2.84 2.84 0 0 0 .83-2.8 3.22 3.22 0 0 0-.69-1.39c-.35-.38-.8-.66-1.29-.81a3 3 0 0 0-1.54 0 2.79 2.79 0 0 0-2.15 1.95 3 3 0 0 0 0 1.55c.1.5.35.95.69 1.33ZM60.93 34l2.59-1c0-.18.06-.36.11-.55l.49-1.81-2.12-.55.19-.71 6.76 1.81-.68 2.53c-.15.74-.56 1.4-1.16 1.86a2.16 2.16 0 0 1-1.9.28 2.17 2.17 0 0 1-1.71-2.11l-2.76 1 .19-.75Zm3.35.28a1.8 1.8 0 0 0 2.51.67c.44-.35.74-.85.85-1.41l.48-1.8-3.39-.91-.48 1.8c-.18.54-.17 1.12.03 1.65ZM57.34 40.44l-.51-.39 3-3.95 5.58 4.23-2.9 3.83-.51-.39 2.45-3.23-2-1.51-2.19 2.89-.5-.38L62 38.65l-2.07-1.57-2.59 3.36ZM55 48.41l-1.43.08v-.48L55 48l-.77-1.19.39-.25.76 1.2.62-1.34.43.23-.68 1.26 1.43-.08v.49h-1.45l.77 1.19-.39.25-.76-1.2-.66 1.3-.42-.24.73-1.21ZM42 47.61l1.21.67a3.11 3.11 0 0 1 2-1.58c.4-.12.82-.17 1.23-.13a2 2 0 0 1 1 .36c.27.2.46.48.56.8.12.4.1.82-.06 1.2a5 5 0 0 1-1 1.39c.33.18.64.4.91.65.19.2.33.43.41.69a1.33 1.33 0 0 1-.26 1.17c-.27.38-.67.66-1.12.77-.4.15-.84.15-1.24 0a1.25 1.25 0 0 1-.72-.85c-.1-.33-.08-.69.07-1 .23-.45.53-.87.89-1.23l-2.41-1.34c-.1.47-.11.95-.06 1.43h-.61c-.04-.59.03-1.18.2-1.74l-1.26-.7.26-.56Zm1.74 1 2.65 1.47c.35-.33.63-.72.85-1.15.11-.29.11-.61 0-.9a1.08 1.08 0 0 0-.7-.75 2 2 0 0 0-1.28 0 2.4 2.4 0 0 0-1.56 1.3l.04.03Zm3.76 4a.9.9 0 0 0 .08-.74c-.06-.2-.17-.38-.32-.52-.25-.21-.53-.4-.83-.55-.3.3-.57.64-.79 1a1 1 0 0 0-.08.74.84.84 0 0 0 .44.53c.25.1.54.1.79 0 .27-.07.5-.24.67-.47l.04.01ZM29.81 55.32l.14-7h.71l-.11 5.6 2.84-4.66h.35L36.4 54l.1-5.57h.71l-.13 7h-.61l-2.94-5.23-3.11 5.13-.61-.01ZM26.33 48a3.41 3.41 0 0 1 .91 3.46c-.16.62-.5 1.18-.95 1.63-.44.44-1 .74-1.61.88-.64.14-1.3.12-1.94-.06a3.76 3.76 0 0 1-1.68-.91 3.36 3.36 0 0 1-.93-1.58A3.7 3.7 0 0 1 22.71 47c.64-.14 1.3-.12 1.93.06.64.16 1.22.49 1.69.94Zm-3.41-.35c-.49.11-.94.36-1.29.72-.37.37-.63.83-.76 1.33-.14.5-.14 1.03 0 1.53.12.49.37.93.73 1.28a3.07 3.07 0 0 0 2.9.77 2.84 2.84 0 0 0 2.06-2.05 2.88 2.88 0 0 0-2.1-3.58 2.89 2.89 0 0 0-1.54 0ZM15.35 43l.27 2.75c.17.07.34.16.5.25l1.63.94 1.1-1.94.65.37L16 51.4l-2.28-1.31c-.67-.34-1.2-.9-1.5-1.6a2.2 2.2 0 0 1 .22-1.9c.23-.44.6-.79 1.05-1 .46-.19.96-.23 1.44-.11l-.29-2.94.71.46Zm-1.14 3.16a1.8 1.8 0 0 0-1.29 2.25c.23.52.64.94 1.15 1.19l1.61.93 1.75-3-1.61-.93a2.47 2.47 0 0 0-1.61-.49v.05ZM9.43 38.31l.45-.45 3.45 3.55-5 4.88L5 42.85l.46-.45 2.83 2.91L10 43.58 7.52 41l.48-.46 2.53 2.6 1.86-1.81-2.96-3.02ZM2 34.38 2.24 33l.47.07-.27 1.42L3.77 34l.16.44-1.35.46 1.11.94-.32.36-1.07-1-.25 1.42-.48-.09.28-1.42-1.34.48-.15-.39 1.34-.47-1.11-.93.33-.36 1.08.94Z"/></g><defs><clipPath id="a"><path fill="#fff" d="M0 0h68.93v55.46H0z"/></clipPath></defs></svg>